<svg width="195" height="20" viewBox="0 0 195 20" fill="none" xmlns="http://www.w3.org/2000/svg">
<path d="M62.0117 0.256165L65.9522 13.6127L69.8211 0.256165H76.0256L79.9303 13.6127L83.8708 0.256165H90.2204L82.9949 20H76.5719L72.8122 7.81126L69.0168 20H62.5937L55.4041 0.256165H62.0098H62.0117Z" fill="black"/>
<path d="M6.60576 0.256165L10.5462 13.6127L14.4151 0.256165H20.6197L24.5244 13.6127L28.4649 0.256165H34.8145L27.589 20H21.1659L17.4063 7.81126L13.6108 20H7.18779L0 0.256165H6.60576Z" fill="black"/>
<path d="M127.062 7.55509V20H120.565V9.41609C120.565 7.15389 119.324 5.80335 117.318 5.80335C115.018 5.83914 113.596 7.66434 113.596 10.2562V20H107.099V9.41609C107.099 7.15389 105.858 5.80335 103.852 5.80335C101.552 5.83914 100.092 7.66434 100.092 10.2562V20H93.6335V0.256169H100.092V3.50349C101.443 1.20362 103.669 0 106.515 0C109.727 0 112.098 1.64249 113.083 4.41514C114.361 1.49557 116.77 0 119.981 0C124.251 0 127.062 2.91957 127.062 7.55509Z" fill="black"/>
<path d="M194.909 7.55509V20H188.448V9.41609C188.448 7.18968 187.135 5.80335 185.091 5.80335C182.901 5.83914 181.479 7.3366 181.222 9.56301V20H174.726V0.256169H181.222V3.4677C182.609 1.2055 184.873 0 187.755 0C192.061 0 194.909 2.91957 194.909 7.55509Z" fill="black"/>
<path d="M140.428 19.6327C145.833 19.6327 150.215 15.2509 150.215 9.84556C150.215 4.44027 145.833 0.0584106 140.428 0.0584106C135.022 0.0584106 130.64 4.44027 130.64 9.84556C130.64 15.2509 135.022 19.6327 140.428 19.6327Z" fill="black"/>
<path d="M54.4961 9.67981H34.9275C35.0141 4.35112 39.3634 0.0584106 44.7109 0.0584106C50.0584 0.0584106 54.4076 4.35112 54.4943 9.67981H54.4961Z" fill="black" fill-opacity="0.7"/>
<path d="M170.358 2.89507L158.992 18.8227C156.495 17.054 154.862 14.1382 154.862 10.8401C154.862 5.43604 159.245 1.05292 164.649 1.05292C166.779 1.05292 168.749 1.7329 170.358 2.89507Z" fill="black" fill-opacity="0.7"/>
</svg>
