<svg width="1393" height="143" viewBox="0 0 1393 143" fill="none" xmlns="http://www.w3.org/2000/svg">
<path d="M443.194 1.83301L471.356 97.3324L499.007 1.83301H543.351L571.257 97.3324L599.42 1.83301H644.8L593.16 143.001H547.255L520.385 55.8519L493.259 143.001H447.354L395.97 1.83301H443.181H443.194Z" fill="white"/>
<path d="M47.211 1.83301L75.3733 97.3324L103.024 1.83301H147.368L175.274 97.3324L203.437 1.83301H248.817L197.177 143.001H151.272L124.402 55.8519L97.2759 143.001H51.3707L0 1.83301H47.211Z" fill="white"/>
<path d="M908.101 54.0189V143H861.671V67.325C861.671 51.1503 852.8 41.494 838.463 41.494C822.026 41.7498 811.862 54.8 811.862 73.3316V143H765.432V67.325C765.432 51.1503 756.561 41.494 742.224 41.494C725.787 41.7498 715.354 54.8 715.354 73.3316V143H669.193V1.83161H715.354V25.0499C725.006 8.60586 740.918 0 761.259 0C784.211 0 801.16 11.7438 808.2 31.5683C817.328 10.6934 834.545 0 857.498 0C888.016 0 908.101 20.8749 908.101 54.0189Z" fill="white"/>
<path d="M1393 54.0189V143H1346.83V67.325C1346.83 51.4062 1337.44 41.494 1322.84 41.494C1307.18 41.7498 1297.02 52.4567 1295.19 68.3755V143H1248.76V1.83161H1295.19V24.794C1305.09 8.61933 1321.27 0 1341.87 0C1372.65 0 1393 20.8749 1393 54.0189Z" fill="white"/>
<path d="M1003.63 140.375C1042.26 140.375 1073.58 109.045 1073.58 70.3971C1073.58 31.7492 1042.26 0.418945 1003.63 0.418945C964.996 0.418945 933.679 31.7492 933.679 70.3971C933.679 109.045 964.996 140.375 1003.63 140.375Z" fill="white"/>
<path d="M389.481 69.2119H249.625C250.244 31.1118 281.327 0.418945 319.546 0.418945C357.764 0.418945 388.848 31.1118 389.467 69.2119H389.481Z" fill="#B3AFEE"/>
<path d="M1217.54 20.6983L1136.31 134.581C1118.46 121.935 1106.79 101.087 1106.79 77.505C1106.79 38.8662 1138.11 7.52686 1176.73 7.52686C1191.96 7.52686 1206.04 12.3887 1217.54 20.6983Z" fill="#B3AFEE"/>
</svg>
