<svg width="195" height="20" viewBox="0 0 195 20" fill="none" xmlns="http://www.w3.org/2000/svg">
<path d="M62.0119 0.256226L65.9524 13.6128L69.8213 0.256226H76.0259L79.9306 13.6128L83.871 0.256226H90.2206L82.9952 20.0001H76.5721L72.8125 7.81132L69.017 20.0001H62.594L55.4043 0.256226H62.0101H62.0119Z" fill="white"/>
<path d="M6.60576 0.256226L10.5462 13.6128L14.4151 0.256226H20.6197L24.5244 13.6128L28.4649 0.256226H34.8145L27.589 20.0001H21.1659L17.4063 7.81132L13.6108 20.0001H7.18779L0 0.256226H6.60576Z" fill="white"/>
<path d="M127.061 7.55509V20H120.565V9.41609C120.565 7.15389 119.324 5.80335 117.318 5.80335C115.018 5.83914 113.596 7.66434 113.596 10.2562V20H107.099V9.41609C107.099 7.15389 105.858 5.80335 103.852 5.80335C101.552 5.83914 100.092 7.66434 100.092 10.2562V20H93.6333V0.256169H100.092V3.50349C101.443 1.20362 103.669 0 106.515 0C109.727 0 112.098 1.64249 113.083 4.41514C114.36 1.49557 116.769 0 119.981 0C124.251 0 127.061 2.91957 127.061 7.55509Z" fill="white"/>
<path d="M194.908 7.55509V20H188.448V9.41609C188.448 7.18968 187.135 5.80335 185.091 5.80335C182.9 5.83914 181.478 7.3366 181.222 9.56301V20H174.726V0.256169H181.222V3.4677C182.608 1.2055 184.873 0 187.754 0C192.06 0 194.908 2.91957 194.908 7.55509Z" fill="white"/>
<path d="M140.428 19.6327C145.833 19.6327 150.215 15.2508 150.215 9.8455C150.215 4.44021 145.833 0.0583496 140.428 0.0583496C135.022 0.0583496 130.641 4.44021 130.641 9.8455C130.641 15.2508 135.022 19.6327 140.428 19.6327Z" fill="white"/>
<path d="M54.4964 9.67975H34.9277C35.0144 4.35106 39.3636 0.0583496 44.7111 0.0583496C50.0586 0.0583496 54.4079 4.35106 54.4945 9.67975H54.4964Z" fill="white" fill-opacity="0.7"/>
<path d="M170.358 2.89514L158.992 18.8228C156.494 17.0541 154.861 14.1383 154.861 10.8401C154.861 5.4361 159.244 1.05298 164.648 1.05298C166.779 1.05298 168.749 1.73296 170.358 2.89514Z" fill="white" fill-opacity="0.7"/>
</svg>
